{
    "asset" : {
        "generator" : "Khronos glTF Blender I/O v1.3.48",
        "version" : "2.0"
    },
    "scene" : 0,
    "scenes" : [
        {
            "name" : "Scene",
            "nodes" : [
                0
            ]
        }
    ],
    "nodes" : [
        {
            "mesh" : 0,
            "name" : "tomb",
            "rotation" : [
                0,
                0.3826834559440613,
                0,
                0.9238795042037964
            ],
            "translation" : [
                -0.018957478925585747,
                0,
                -0.007345901802182198
            ]
        }
    ],
    "materials" : [
        {
            "doubleSided" : true,
            "emissiveFactor" : [
                0,
                0,
                0
            ],
            "name" : "Material.001",
            "normalTexture" : {
                "index" : 0,
                "texCoord" : 0
            },
            "pbrMetallicRoughness" : {
                "baseColorTexture" : {
                    "index" : 1,
                    "texCoord" : 0
                },
                "metallicFactor" : 0,
                "metallicRoughnessTexture" : {
                    "index" : 2,
                    "texCoord" : 0
                }
            }
        },
        {
            "doubleSided" : true,
            "emissiveFactor" : [
                0,
                0,
                0
            ],
            "name" : "Material.002",
            "pbrMetallicRoughness" : {
                "baseColorFactor" : [
                    0.2862057685852051,
                    0,
                    0.003450677264481783,
                    1
                ],
                "metallicFactor" : 0
            }
        }
    ],
    "meshes" : [
        {
            "name" : "Plane",
            "primitives" : [
                {
                    "attributes" : {
                        "POSITION" : 0,
                        "NORMAL" : 1,
                        "TEXCOORD_0" : 2
                    },
                    "indices" : 3,
                    "material" : 0
                },
                {
                    "attributes" : {
                        "POSITION" : 4,
                        "NORMAL" : 5,
                        "TEXCOORD_0" : 6
                    },
                    "indices" : 7,
                    "material" : 1
                }
            ]
        }
    ],
    "textures" : [
        {
            "source" : 0
        },
        {
            "source" : 1
        },
        {
            "source" : 2
        }
    ],
    "images" : [
        {
            "bufferView" : 4,
            "mimeType" : "image/jpeg",
            "name" : "rock_08_bump_1k"
        },
        {
            "bufferView" : 5,
            "mimeType" : "image/jpeg",
            "name" : "rock_08_diff_1k"
        },
        {
            "bufferView" : 6,
            "mimeType" : "image/png",
            "name" : "rock_08_rough_1k"
        }
    ],
    "accessors" : [
        {
            "bufferView" : 0,
            "componentType" : 5126,
            "count" : 116,
            "max" : [
                1.1052192449569702,
                2.8414416313171387,
                1.3302134275436401
            ],
            "min" : [
                -1.3517141342163086,
                -0.8756325244903564,
                -1.1049060821533203
            ],
            "type" : "VEC3"
        },
        {
            "bufferView" : 1,
            "componentType" : 5126,
            "count" : 116,
            "type" : "VEC3"
        },
        {
            "bufferView" : 2,
            "componentType" : 5126,
            "count" : 116,
            "type" : "VEC2"
        },
        {
            "bufferView" : 3,
            "componentType" : 5123,
            "count" : 216,
            "type" : "SCALAR"
        },
        {
            "bufferView" : 7,
            "componentType" : 5126,
            "count" : 1920,
            "max" : [
                1.1052193641662598,
                0,
                1.3302135467529297
            ],
            "min" : [
                -1.3517142534255981,
                -0.875632643699646,
                -1.1049062013626099
            ],
            "type" : "VEC3"
        },
        {
            "bufferView" : 8,
            "componentType" : 5126,
            "count" : 1920,
            "type" : "VEC3"
        },
        {
            "bufferView" : 9,
            "componentType" : 5126,
            "count" : 1920,
            "type" : "VEC2"
        },
        {
            "bufferView" : 10,
            "componentType" : 5123,
            "count" : 2880,
            "type" : "SCALAR"
        }
    ],
    "bufferViews" : [
        {
            "buffer" : 0,
            "byteLength" : 1392,
            "byteOffset" : 0
        },
        {
            "buffer" : 0,
            "byteLength" : 1392,
            "byteOffset" : 1392
        },
        {
            "buffer" : 0,
            "byteLength" : 928,
            "byteOffset" : 2784
        },
        {
            "buffer" : 0,
            "byteLength" : 432,
            "byteOffset" : 3712
        },
        {
            "buffer" : 0,
            "byteLength" : 700133,
            "byteOffset" : 4144
        },
        {
            "buffer" : 0,
            "byteLength" : 660234,
            "byteOffset" : 704280
        },
        {
            "buffer" : 0,
            "byteLength" : 923254,
            "byteOffset" : 1364516
        },
        {
            "buffer" : 0,
            "byteLength" : 23040,
            "byteOffset" : 2287772
        },
        {
            "buffer" : 0,
            "byteLength" : 23040,
            "byteOffset" : 2310812
        },
        {
            "buffer" : 0,
            "byteLength" : 15360,
            "byteOffset" : 2333852
        },
        {
            "buffer" : 0,
            "byteLength" : 5760,
            "byteOffset" : 2349212
        }
    ],
    "buffers" : [
        {
            "byteLength" : 2354972,
            "uri" : "data:application/octet-stream;base64,"
        }
    ]
}
